<?xml version="1.0" encoding="UTF-8"?> <svg xmlns="http://www.w3.org/2000/svg" xmlns:xlink="http://www.w3.org/1999/xlink" width="205" height="56" viewBox="0 0 205 56"><defs><clipPath id="clip-Logo_B"><rect width="205" height="56"></rect></clipPath></defs><g id="Logo_B" clip-path="url(#clip-Logo_B)"><g id="Group_10429" data-name="Group 10429" transform="translate(-3261 -9149.528)"><path id="Union_187" data-name="Union 187" d="M100.855,21.051l-.031-.083c-.068-.11-6.834-10.7-13.274-20.968H95.8c4.5,7.362,8.574,14.017,8.574,14.017l.178.289.178-.289S108.657,7.6,113.287,0l8.161,0C115,10.213,108.243,20.711,108.173,20.817l-3.76,28.264ZM129.8,37.961,118.893,12.367c1.573-2.466,3.1-4.871,4.545-7.148l3.964,9.959,2.4,6.847,2.354-6.625,4.434-11.258h7.619L129.8,37.961v0ZM25.8,25.743V4.153h6.6V25.7c0,6.949,10.715,6.949,10.715,0V4.153H49.67V25.743c0,7.876-5.97,11.814-11.938,11.814S25.8,33.619,25.8,25.743Zm-9.016-22a16.046,16.046,0,0,1,6.513,1.3l-.786,6.81a11.222,11.222,0,0,0-5.727-1.436c-13.069,0-13.069,20.2,0,20.2a14.11,14.11,0,0,0,6.374-1.484l.877,6.857a20.973,20.973,0,0,1-7.251,1.39C-5.616,37.378-5.57,3.742,16.78,3.742Zm152.9,33.538v-26.5h-8.221V4.2H184.5v6.58H176.28v26.5Zm18.234,0V4.153h16.533v6.626h-9.927V17.4H203.2v6.625h-8.686v6.625H205v6.625Zm-105.415,0H75.9v-26.5H67.674V4.2H84.907c1.279,2.035,2.675,4.248,4.148,6.579H82.5v26.5h0Zm-28.848,0V4.153h6.608v26.5H70.739v6.625Zm104.1,0-1.34-3.569H145.462l-1.292,3.569h-7.481L150.935,2.947,165.18,37.278ZM147.855,27.5h6.1l-3-8.617Z" transform="translate(3261 9149.528)" fill="#394d5c"></path><path id="Union_188" data-name="Union 188" d="M20.9,13.2l-1.521-4.15H64.257L62.749,13.2ZM46.907,4.15,47.459,0H84.618L83.145,4.149H46.907Zm-45.368,0L0,0H36.816l.526,4.149H1.538Z" transform="translate(3323.296 9192.33)" fill="#3bb066"></path></g></g></svg> 